<svg id="_x34_0_Sms" xmlns="http://www.w3.org/2000/svg" width="25.357" height="32.83" viewBox="0 0 25.357 32.83">
  <g id="Group_11310" data-name="Group 11310" transform="translate(0 0)">
    <path id="Path_186" data-name="Path 186" d="M69.206,43.8H82.178a2.459,2.459,0,0,0,2.456-2.456c0-.6,0,2.184,0-5.9a8.088,8.088,0,0,0,0-16.129c0-.6,0,2.183,0-5.894a2.459,2.459,0,0,0-2.456-2.456H69.206a2.459,2.459,0,0,0-2.456,2.456c0,.053,0,29.813,0,27.919A2.459,2.459,0,0,0,69.206,43.8ZM83.862,19.3A8.082,8.082,0,0,0,77.64,32.364l-4.1,2.4a.388.388,0,0,0,.2.723H83.862v3.186H67.524V16.105H83.862v3.2ZM82.178,43.029H69.206a1.682,1.682,0,0,1-1.68-1.68v-1.9H83.859v1.9A1.682,1.682,0,0,1,82.178,43.029Zm9.154-15.64a7.326,7.326,0,0,1-7.315,7.32H75.167L78.425,32.8a.388.388,0,0,0,.1-.591,7.315,7.315,0,1,1,12.811-4.823ZM67.526,13.43a1.682,1.682,0,0,1,1.68-1.68H82.178a1.682,1.682,0,0,1,1.68,1.68v1.9H67.526Z" transform="translate(-66.75 -10.974)"/>
    <path id="Path_187" data-name="Path 187" d="M241.351,43.464h-.441a.388.388,0,0,0,0,.776h.441a.388.388,0,0,0,0-.776Z" transform="translate(-228.88 -41.287)"/>
    <path id="Path_188" data-name="Path 188" d="M146.827,43.464H142.16a.388.388,0,0,0,0,.776h4.668a.388.388,0,1,0,0-.776Z" transform="translate(-136.746 -41.287)"/>
    <path id="Path_189" data-name="Path 189" d="M188.938,456.922h-.911a.388.388,0,0,0,0,.776h.911a.388.388,0,0,0,0-.776Z" transform="translate(-179.54 -427.046)"/>
    <path id="Path_190" data-name="Path 190" d="M268.965,206.286c0,2.877,3.394,4.694,3.538,4.77a.389.389,0,0,0,.361,0c.144-.076,3.534-1.893,3.534-4.77a2.136,2.136,0,0,0-3.716-1.429A2.138,2.138,0,0,0,268.965,206.286Zm3.72-.341a.388.388,0,0,0,.353-.229,1.357,1.357,0,0,1,2.586.571c0,2.065-2.274,3.58-2.939,3.98-.666-.4-2.943-1.915-2.943-3.98a1.359,1.359,0,0,1,2.59-.569.388.388,0,0,0,.353.227Z" transform="translate(-255.418 -191.213)"/>
  </g>
</svg>
