<svg xmlns="http://www.w3.org/2000/svg" width="588.74" height="35.782" viewBox="0 0 588.74 35.782">
  <g id="Group_12011" data-name="Group 12011" transform="translate(-11724.296 -9662.092)">
    <g id="mastercard" transform="translate(12092.473 9664.325)">
      <path id="Combined_Shape" data-name="Combined Shape" d="M37.538,32.175a16.017,16.017,0,0,1-10.712-4.107,16.267,16.267,0,0,1-10.739,4.107A16.088,16.088,0,0,1,15.917,0C16,0,16,0,16,.17A15.728,15.728,0,0,1,26.669,4.208,15.884,15.884,0,0,1,37.453,0h.085a16.087,16.087,0,1,1,0,32.175Z" transform="translate(0)"/>
      <g id="Group" transform="translate(1.532 11.917)">
        <path id="Combined_Shape-2" data-name="Combined Shape" d="M46.05,8.512h0c-1.462,0-2.128-1.456-2.128-2.809a4.963,4.963,0,0,1,.873-2.873,2.674,2.674,0,0,1,1.827-1.2h.008l.022,0,.022,0h.009l.027,0h.106a2.375,2.375,0,0,1,1.617.851l.34-2.3,1.787.086L49.284,8.427h-1.7l.084-.592h0a2.313,2.313,0,0,1-1.615.677Zm.6-1.7c.885,0,1.362-1.1,1.362-2.128,0-.974-.306-1.447-.937-1.447-.8,0-1.362.91-1.362,2.213C45.709,6.3,46.059,6.809,46.646,6.809ZM35.325,6.64q0-.022,0-.043t0-.043a2.271,2.271,0,0,1,.989-2.011A3.789,3.789,0,0,1,38.389,4h.766s.076-.078.085-.372c-.021-.495-.543-.564-1.106-.564a5.058,5.058,0,0,0-1.873.341l.216-.166c-.137.046-.214.079-.216.08l.256-1.447a6.169,6.169,0,0,1,2.043-.34,2.429,2.429,0,0,1,1.822.613,1.984,1.984,0,0,1,.477,1.515v.007q0,.039,0,.08l-.681,4.682H38.645l.011-.086h-.011l.074-.592a.581.581,0,0,0-.1.084,2.328,2.328,0,0,1-1.675.679C36.672,8.512,35.325,8.421,35.325,6.64ZM37.112,6.3a.661.661,0,0,0,.652.681,1.5,1.5,0,0,0,.553-.147,1.936,1.936,0,0,0,.669-1.47.565.565,0,0,1-.239-.052,1.736,1.736,0,0,1-.187-.033C37.3,5.3,37.112,5.926,37.112,6.3ZM33.026,8.512c-2.043,0-3.065-1.447-3.065-3.575C29.962,1.7,31.92,0,33.878,0a5.984,5.984,0,0,1,1.958.426l-.255,1.787a2.846,2.846,0,0,0-1.533-.51c-1.192,0-2.213,1.106-2.213,3.149,0,1.022.511,1.957,1.7,1.957a4.177,4.177,0,0,0,1.446-.426l-.34,1.873a7.628,7.628,0,0,1-1.617.256Zm-9.193,0H23.78l-.081,0h-.021a3.189,3.189,0,0,1-1.845-.593,2.843,2.843,0,0,1-.978-2.383c0-2.155,1.247-3.841,2.839-3.841h0c.052,0,.106,0,.161.006l.06,0a2.3,2.3,0,0,1,2.469,2.469A11.3,11.3,0,0,1,26.132,5.7h-3.49a1.11,1.11,0,0,0,.184.882,1.631,1.631,0,0,0,1.349.48,3.43,3.43,0,0,0,.656-.071,5.658,5.658,0,0,0,.747-.206c.231-.08.38-.147.384-.149h0l-.341,1.617a2.819,2.819,0,0,1-.73.185,7.2,7.2,0,0,1-1.058.071ZM22.728,4.256H24.6c0-.007,0-.02,0-.039a1.211,1.211,0,0,0-.214-.94.682.682,0,0,0-.466-.21h-.088C22.862,3.065,22.728,4.244,22.728,4.256ZM19.076,8.511h-.095A1.278,1.278,0,0,1,17.62,7.065l.214-.466c.2-1.531.978-5.833.978-5.833h1.7l-.17,1.021h.851L20.939,3.4H20l-.511,2.979a.277.277,0,0,0-.028.121c0,.174.149.391.624.391a3.618,3.618,0,0,0,.426-.086l-.255,1.447a2.614,2.614,0,0,1-1.107.256ZM7.661,6.64q0-.022,0-.043t0-.043a2.269,2.269,0,0,1,.99-2.011A3.785,3.785,0,0,1,10.725,4h.766s.076-.078.085-.372c-.021-.495-.543-.564-1.106-.564A5.064,5.064,0,0,0,8.6,3.406l.216-.166c-.137.045-.213.079-.216.08l.256-1.447a6.175,6.175,0,0,1,2.043-.34c1.5,0,2.3.736,2.3,2.128v.007q0,.039,0,.08l-.681,4.682H10.981l.011-.086h-.011l.074-.592a.581.581,0,0,0-.1.084,2.328,2.328,0,0,1-1.675.679C9.008,8.512,7.661,8.421,7.661,6.64Zm2.383.339c.989,0,1.192-1.275,1.192-1.617a1.488,1.488,0,0,1-.317-.078L10.9,5.278c-1.332,0-1.532.639-1.532,1.021A.661.661,0,0,0,10.044,6.98ZM14.96,8.427h-.148A10.552,10.552,0,0,1,13.7,8.378a3.875,3.875,0,0,1-.761-.122l.055-.044a.311.311,0,0,1-.14-.126l.256-1.533a5.559,5.559,0,0,0,1.532.256c.426,0,1.021-.085,1.021-.6,0-.766-2.128-.6-2.128-2.553,0-1.7,1.277-2.213,2.553-2.213h.086a6.471,6.471,0,0,1,1.617.17l-.256,1.532-.084-.007v.007s-.859-.078-1.156-.084c-.565.009-.886.182-.886.6,0,.851,2.042.426,2.042,2.553a2.134,2.134,0,0,1-2.442,2.214Zm25.472,0,1.107-6.639h1.617l-.17.936s.6-1.021,1.362-1.021h.34a6.665,6.665,0,0,0-.6,1.957C42.9,3.235,42.816,5.533,42.3,8.342v.085Zm-14.3,0,1.107-6.639h1.617l-.17.936s.6-1.021,1.362-1.021h.34a6.665,6.665,0,0,0-.6,1.957C28.6,3.235,28.516,5.533,28,8.342v.085ZM5.278,8.342l.936-6.129L4,8.342H2.809l-.17-6.129L1.617,8.342H0L1.362.17H3.83l.086,5.022L5.618.17H8.427L7.065,8.342Z" transform="translate(0)" fill="#fff"/>
      </g>
    </g>
    <g id="visa" transform="translate(11986.931 9668.81)">
      <path id="Combined_Shape-3" data-name="Combined Shape" d="M36.942,21.569l.019-.111-.019-.008.834-4.886.833.357a12.953,12.953,0,0,0,5.72,1.192c1.669,0,3.575-.715,3.575-2.145a1.547,1.547,0,0,0-.127-.633,3.112,3.112,0,0,0-.468-.559l.356.348a6.475,6.475,0,0,0-2.858-1.9c-2.383-1.072-5.363-2.741-5.363-5.958C39.444,2.979,43.735,0,49.694,0a15.124,15.124,0,0,1,5.481.953L54.221,5.6l-.6-.238A10.944,10.944,0,0,0,49.1,4.529c-2.383,0-3.455.953-3.455,1.906,0,1.073,1.31,1.669,3.455,2.74,3.576,1.55,5.125,3.456,5.125,5.959a6.393,6.393,0,0,1-1.855,4.581l.068.066c-1.787,1.906-4.886,2.979-8.7,2.979A19.324,19.324,0,0,1,36.942,21.569Zm-23.953.715L7.782,3.768A27.727,27.727,0,0,0,3.83,1.89,29.6,29.6,0,0,0,0,.715H11.083c1.311,0,2.383.358,2.74,1.788l1.91,9.018q.206.5.354.992l.477,2.979,1.906-4.528.027.027L22.642.834h6.435L20.36,20.205l-.817,1.96h-.065l-.053.119Zm46.832-.118H53.387l8.938-19.9c.6-1.437,1.662-1.549,3.1-1.549H70.07L73.044,13.46l.006.006,2.026,8.7h-5.72L68.64,18.59H61.014l-1.192,3.575h0ZM65.065,8.7s-1.906,5.124-2.383,6.316h4.981c-.276-1.35-1.358-6.219-1.405-6.432L65.9,6.554c-.165.386-.356.875-.514,1.288C65.2,8.321,65.065,8.7,65.065,8.7ZM27.527,22.165,31.342.715H37.3L33.605,22.165ZM0,.715A29.6,29.6,0,0,1,3.83,1.89Z" transform="translate(0)"/>
    </g>
    <g id="american-express" transform="translate(12176.564 9663.163)">
      <path id="Path" d="M49.029,30.914a2.9,2.9,0,0,1-2.9,2.9H2.9a2.9,2.9,0,0,1-2.9-2.9V2.9A2.9,2.9,0,0,1,2.9,0H46.131a2.9,2.9,0,0,1,2.9,2.9V30.914Z"/>
      <path id="Path-2" data-name="Path" d="M2.06,30.914V2.9A2.9,2.9,0,0,1,4.959,0H2.9A2.9,2.9,0,0,0,0,2.9V30.914a2.9,2.9,0,0,0,2.9,2.9H4.959A2.9,2.9,0,0,1,2.06,30.914Z" opacity="0.15"/>
      <g id="Group-2" data-name="Group" transform="translate(3.519 9.935)">
        <path id="Combined_Shape-4" data-name="Combined Shape" d="M25.529,14.584h-3v-1.8a4.029,4.029,0,0,1-1.532.2h-.333v1.532H16.941l-.835-.963-.962.963H9.284V7.79h5.992l.866,1,.932-1h4a2.625,2.625,0,0,1,1.532.4v-.4h3.6a2.683,2.683,0,0,1,1.465.4v-.4h5.459v.4a2.115,2.115,0,0,1,1.332-.4h3.063v.4a.027.027,0,0,1,.007-.006,1.831,1.831,0,0,1,.912-.392h3.207v.2l0,3a2.551,2.551,0,0,1,.333,1.264c0,.04,0,.08,0,.13l0,0,0,.035,0,.034a2.239,2.239,0,0,1-1.057,1.8,2.89,2.89,0,0,1-1.6.333H36.45v-.4a2.592,2.592,0,0,1-1.532.4H25.863V13.051c0-.2,0-.2-.2-.2H25.53v1.732h0Zm11.721-1h2.13a1.955,1.955,0,0,0,1.4-.466,1.437,1.437,0,0,0,.379-1.238,1.429,1.429,0,0,0-.931-1.053,2.049,2.049,0,0,0-.712-.106h-.6a.84.84,0,0,1-.4-.068c-.209-.068-.266-.14-.266-.332a.509.509,0,0,1,.133-.333.986.986,0,0,1,.466-.067h2.065V8.789h-2.2a2.56,2.56,0,0,0-.343.024,1.368,1.368,0,0,0-1.256,1.374c0,1.343,1.048,1.4,2.061,1.45l.27.015a.55.55,0,0,1,.4.133.482.482,0,0,1,0,.665.562.562,0,0,1-.467.133H37.25Zm-4.329,0h2.131c1.148,0,1.731-.493,1.731-1.465a1.347,1.347,0,0,0-.333-1,1.691,1.691,0,0,0-1.264-.4h-.6a.84.84,0,0,1-.4-.068c-.131-.065-.266-.131-.266-.332,0-.13,0-.266.133-.333a.986.986,0,0,1,.466-.067h2.064V8.789h-2.2a1.393,1.393,0,0,0-1.6,1.4c0,1.343,1.048,1.4,2.061,1.45l.27.015a.575.575,0,0,1,.4.133.482.482,0,0,1,0,.665.561.561,0,0,1-.466.133H32.921Zm-4.394,0h3.729v-1h-2.6v-.932h2.53V10.72h-2.53V9.854h2.6v-1H28.527Zm-3.994-1.731h1.2c.4,0,.666,0,.8.2a1.476,1.476,0,0,1,.2.932v.6H27.86v-.932a1.531,1.531,0,0,0-.2-.866,1.137,1.137,0,0,0-.6-.4,1.329,1.329,0,0,0,.8-1.265,1.171,1.171,0,0,0-.6-1.066,2.678,2.678,0,0,0-1.332-.2H23.4v4.728h1.132v-1.73h0Zm-8.324.266,1.274,1.464H19.67V11.853H21c.829,0,1.931-.166,1.931-1.6a1.881,1.881,0,0,0-.055-.466c-.239-.574-.826-.866-1.742-.866H17.607l-1.4,1.532-.033.035-.249-.272-1.182-1.3H10.416v4.661h4.262l1.464-1.532.062.072,0,0h0Zm.6-.867,1.732-1.864v3.8Zm-5.393,1.4v-1h2.463V10.72H11.415V9.855h2.8l1.2,1.4-1.265,1.4Zm8.257-1.6v-1.2h1.4a.672.672,0,0,1,.733.6c0,.4-.266.6-.666.6Zm4.927-.066V9.922H25.93a1.3,1.3,0,0,1,.533.067.37.37,0,0,1,.2.466.521.521,0,0,1-.2.466,1.3,1.3,0,0,1-.533.067ZM9.016,6.593H5.155l-.4-1.065H3.891l-.4,1-.024.067H0l.028-.067,1.532-3.4L2.892,0h2.93l.333.8V0h3.4l.733,1.665L11.015,0h10.72A1.919,1.919,0,0,1,23,.4V0h3V.4A4.083,4.083,0,0,1,27.861,0h4.261l.4.8V0h3.129l.4.8V0h3V6.525H35.918l-.6-1v1H31.457l-.4-1.065h-.932l-.4,1.065h-2a4.01,4.01,0,0,1-1.8-.4v.4H21.136V5.061c0-.2,0-.2-.132-.2h-.134v1.73H11.614v-.8l-.332.8H9.35l-.333-.8v.8h0ZM26.2,1.465a2.71,2.71,0,0,0-.6,1.865,2.357,2.357,0,0,0,.6,1.8,2.369,2.369,0,0,0,1.6.533h1.265l.4-1.066H31.79l.4,1h1.131l1.125,0V4.987l.007.007V2.065l2.131,3.529h1.464V1H36.916V4.261L34.986,1H33.321V5.46L31.457,1H29.792L28.26,4.661h-.466a1.051,1.051,0,0,1-.8-.266,1.455,1.455,0,0,1-.332-1.132A1.574,1.574,0,0,1,26.995,2.2a1.228,1.228,0,0,1,.866-.266h1.066v-1H27.86A2.077,2.077,0,0,0,26.2,1.465ZM14.344,5.66h3.729v-1h-2.6V3.729h2.53V2.8h-2.53V1.931h2.6v-1H14.344Zm9.589-.067h1.131V.932H23.933Zm-4-1.665h1.2a1.314,1.314,0,0,1,.6.066.61.61,0,0,1,.2.134,1.588,1.588,0,0,1,.2.932v.533h1V4.661c0-.04,0-.077,0-.114V4.528a.087.087,0,0,0,0-.016,1.281,1.281,0,0,0-.236-.78.69.69,0,0,0-.065-.079l-.006,0A.9.9,0,0,0,22.4,3.4a1.322,1.322,0,0,0,.8-1.228,1.125,1.125,0,0,0-.531-1.035,2.55,2.55,0,0,0-1.332-.2h-2.53V5.594h1.131V3.929h0ZM12.413,1.936V5.594h1.066V.932h-1.8l-1.331,3.2-.022.069-.6-1.37L8.884,1,8.851.932H7.086V5.394L5.222.932H3.558L1.588,5.594h1.17l.466-1H5.488l.466,1H8.218V1.931l1.6,3.662H10.8l1.549-3.512.065-.146ZM29.858,3.6l.8-1.864L31.39,3.6ZM3.623,3.6l.733-1.864L5.089,3.6ZM19.937,3V1.931h1.332A1.315,1.315,0,0,1,21.8,2a.378.378,0,0,1,.2.227.091.091,0,0,1,0,.015.334.334,0,0,1,.01.061.717.717,0,0,1-.092.5.354.354,0,0,1-.052.071l-.016.017h0a.23.23,0,0,1-.055.04A1.282,1.282,0,0,1,21.269,3Z" fill="#fff"/>
      </g>
    </g>
    <g id="diners-club" transform="translate(12256.06 9662.092)">
      <path id="Path-3" data-name="Path" d="M0,6.147a6.5,6.5,0,0,0,4.221,6.147V0A6.5,6.5,0,0,0,0,6.147Z" transform="translate(18.992 5.23)"/>
      <path id="Path-4" data-name="Path" d="M0,0V12.295A6.593,6.593,0,0,0,4.221,6.147,6.5,6.5,0,0,0,0,0Z" transform="translate(27.892 5.23)"/>
      <g id="Group-3" data-name="Group" transform="translate(14.13)">
        <path id="Path-5" data-name="Path" d="M0,6.147A6.593,6.593,0,0,0,4.221,0" transform="translate(13.763 11.377)"/>
        <path id="Shape" d="M11.469,22.754A11.376,11.376,0,0,1,0,11.469,11.19,11.19,0,0,1,11.469,0H16.79A11.742,11.742,0,0,1,28.718,11.469c0,6.239-5.689,11.285-11.928,11.285Z" fill="#474747"/>
      </g>
      <g id="Group-4" data-name="Group" transform="translate(0 22.846)">
        <path id="Combined_Shape-5" data-name="Combined Shape" d="M17.8,6.147c0-2.395,1.561-3.028,2.386-3.028A1.9,1.9,0,0,1,22.2,5.046V5.23H18.716v.734c.1,1.164.879,2.11,1.743,2.11a2.357,2.357,0,0,0,1.652-.825l.184.183a2.847,2.847,0,0,1-2.2,1.377C17.864,8.808,17.8,6.42,17.8,6.147Zm1.009-1.284h2.019c.278,0,.367-.185.367-.275a.991.991,0,0,0-1.009-1.1A1.413,1.413,0,0,0,18.808,4.863ZM1.651,8.625H0V8.349l.11-.014c.66-.08.991-.121.991-.9V1.468h.092A1.163,1.163,0,0,0,.964.637.835.835,0,0,0,.327.457H.092V.184H3.578C6.71.184,8.349,2.307,8.349,4.4c0,1.568-1.043,4.221-4.955,4.221ZM3.67,8.166c2.57,0,3.487-1.943,3.487-3.762A3.605,3.605,0,0,0,3.395.551a2.3,2.3,0,0,0-.917.092V7.157H2.386C2.386,8.087,3.049,8.166,3.67,8.166Zm12.845.367H15.231V8.258h.184c.367,0,.55,0,.55-.367V4.771a.989.989,0,0,0-1.1-1.009,2.912,2.912,0,0,0-1.376.55V7.89c0,.367.275.367.643.367h.183v.275H11.744V8.258h.275c.367,0,.55,0,.55-.367V4.679c0-.459-.091-.55-.733-.825V3.67c.551-.184,1.009-.367,1.56-.551a.09.09,0,0,1,.092.092v.826A3.666,3.666,0,0,1,15.6,3.119c1.009,0,1.376.734,1.376,1.652V7.89c0,.367.275.367.642.367H17.8v.275Zm-5.047-.092H8.9V8.258h.275c.366,0,.551,0,.551-.367v-3.3c0-.546-.185-.643-.643-.825V3.578c.14-.047.288-.094.43-.14a4.134,4.134,0,0,0,.854-.319.285.285,0,0,1,.184-.092c.092,0,.092.094.092.184V7.8c0,.367.269.367.643.367h.183V8.44h0ZM9.635.551A.587.587,0,0,1,10.184,0a.6.6,0,0,1,.551.551.616.616,0,0,1-.551.642A.616.616,0,0,1,9.635.551Z" transform="translate(0 0.551)"/>
        <path id="Combined_Shape-6" data-name="Combined Shape" d="M29.268,8.9l-.366.275-.275-.092.028-.22a14.626,14.626,0,0,0,.156-1.89V1.835c0-.792-.172-.825-.587-.906L28.167.918V.734c.114-.046.234-.091.354-.137a5.534,5.534,0,0,0,.931-.414.339.339,0,0,1,.275-.092c.092,0,.092.094.092.184V4.423a2.969,2.969,0,0,1,1.743-.752,2.34,2.34,0,0,1,2.2,2.569A3.04,3.04,0,0,1,30.92,9.358,2.7,2.7,0,0,1,29.268,8.9Zm1.743,0c1.346,0,1.835-1.372,1.835-2.294A2.338,2.338,0,0,0,30.92,4.221a1.571,1.571,0,0,0-1.1.55V7.707h-.092A1.294,1.294,0,0,0,31.011,8.9Zm-4.679.366V8.258a3.49,3.49,0,0,1-2.111,1.009A1.307,1.307,0,0,1,22.937,7.8V4.679c0-.275-.092-.642-.733-.642V3.854c.458,0,1.376-.092,1.56-.092.092,0,.092.092.092.367V7.249c0,.366,0,1.376,1.009,1.376a2.719,2.719,0,0,0,1.468-.734V4.679c0-.275-.55-.367-1.009-.459V4.037c1.1-.092,1.743-.184,1.835-.184s.092.092.092.184v4.4h.092c0,.184.092.184.366.184h.459V8.9c-.551.092-1.468.275-1.743.366Zm-14.68-4.5A4.412,4.412,0,0,1,16.24.551a7.58,7.58,0,0,1,2.845.642l.091,1.652H18.9C18.717,1.468,17.708.917,16.331.917s-3.395.918-3.395,3.854A3.911,3.911,0,0,0,16.515,8.9,2.379,2.379,0,0,0,18.9,6.79l.274.092L18.9,8.625a7.557,7.557,0,0,1-2.661.642A4.262,4.262,0,0,1,11.652,4.771ZM4.771,8.9,4.679,7.523l.184-.091c.184.825.643,1.468,1.56,1.468.734,0,1.01-.459,1.01-.826,0-1.376-2.661-.917-2.661-2.936a1.679,1.679,0,0,1,1.835-1.56,2.816,2.816,0,0,1,1.376.367l.092,1.193H7.8A1.232,1.232,0,0,0,6.514,3.946a.842.842,0,0,0-.917.825c0,1.376,2.752,1.01,2.752,2.844,0,.826-.643,1.652-2.111,1.652A4.32,4.32,0,0,1,4.771,8.9Zm-3.3.366H0V8.808H.551c.366,0,.55,0,.55-.367V5.046c0-.367-.458-.459-.642-.551V4.312c.917-.366,1.376-.642,1.468-.642s.092,0,.092.184v1.1c.275-.459.825-1.193,1.56-1.193A.622.622,0,0,1,4.22,4.4c0,.367-.183.643-.55.643s-.367-.275-.826-.275a1.062,1.062,0,0,0-.917,1.01V8.625c0,.367.275.367.551.367h.642v.274Zm19.451-.092H19.634V8.808h.184c.367,0,.551,0,.551-.367v-6.7c0-.826-.184-.826-.643-.917V.643A8.891,8.891,0,0,0,21.01.092.337.337,0,0,1,21.286,0c.092,0,.092.092.092.184V8.533c0,.367.275.367.643.367H22.2v.275Z" transform="translate(22.295 0)"/>
      </g>
      <g id="Group-5" data-name="Group" transform="translate(55.509 34.406)">
        <path id="Shape-2" data-name="Shape" d="M0,.734A.79.79,0,0,1,.734,0a.724.724,0,0,1,.734.734c0,.458-.275.642-.734.642A.655.655,0,0,1,0,.734Z" fill="#006ac9"/>
      </g>
      <path id="Path-6" data-name="Path" d="M26.608,9.634A11.064,11.064,0,0,0,23.4,1.927,12.631,12.631,0,0,0,16.79,0H11.469A11.19,11.19,0,0,0,0,11.469,11.333,11.333,0,0,0,2.844,18.9,15.292,15.292,0,0,0,9.267,21.47,10.441,10.441,0,1,1,21.928,11.285,10.319,10.319,0,0,1,11.744,21.653H12.2C20.093,21.745,26.608,16.332,26.608,9.634Z" transform="translate(14.13)" fill="#131313"/>
      <path id="Path-7" data-name="Path" d="M11.469,0A11.19,11.19,0,0,0,0,11.469a10.779,10.779,0,0,0,2.753,7.248l.275.275a16.18,16.18,0,0,0,6.331,2.569A10.441,10.441,0,1,1,22.02,11.377,10.319,10.319,0,0,1,11.836,21.745h.459a6.944,6.944,0,0,0,1.376-.092,12.205,12.205,0,0,0,8.808-14.13A12.758,12.758,0,0,0,18.35.092,6.944,6.944,0,0,0,16.974,0Z" transform="translate(14.038)"/>
    </g>
    <g id="ssl_2_" data-name="ssl (2)" transform="translate(11930.977 9663.12)">
      <path id="Combined_Shape-7" data-name="Combined Shape" d="M8.474,33.634A8.484,8.484,0,0,1,0,25.16v-11.5a2.96,2.96,0,0,1,2.957-2.957H22.532a2.959,2.959,0,0,1,2.956,2.957v11.5a8.484,8.484,0,0,1-8.474,8.474Zm1.781-10.67a2.738,2.738,0,0,0,2.957,2.585h.016a2.638,2.638,0,0,0,2.824-2.583,2.4,2.4,0,0,0-1.025-2.031,6.011,6.011,0,0,0-1.633-.751l-.282-.1-.013,0-.013,0c-.865-.319-.926-.5-.924-.759.005-.548.542-.63.861-.63.413,0,1,.193,1,.614a.986.986,0,0,0,1.971,0,2.737,2.737,0,0,0-2.957-2.584h-.016A2.638,2.638,0,0,0,10.194,19.3c-.017,1.84,1.6,2.409,2.373,2.683a.712.712,0,0,0,.08.025l.054.019.053.018c1.157.4,1.331.557,1.328.9-.005.548-.537.63-.853.63h-.008c-.413,0-1-.193-1-.614a.986.986,0,0,0-1.971,0Zm-6.236,0a2.738,2.738,0,0,0,2.957,2.585h.016a2.638,2.638,0,0,0,2.824-2.583,2.4,2.4,0,0,0-1.025-2.031,6.011,6.011,0,0,0-1.633-.751l-.282-.1-.016-.005-.009,0c-.865-.319-.926-.5-.924-.759.005-.548.542-.63.861-.63.413,0,1,.193,1,.614a.986.986,0,0,0,1.971,0A2.737,2.737,0,0,0,6.8,16.718H6.782A2.638,2.638,0,0,0,3.958,19.3c-.017,1.84,1.6,2.41,2.372,2.684.025.009.051.017.082.025l.054.019.053.018c1.157.4,1.331.557,1.328.9-.005.548-.537.63-.853.63H6.986c-.413,0-1-.193-1-.614a.986.986,0,1,0-1.971,0Zm12.715-5.233v6.832a.986.986,0,0,0,.986.985h2.825a.985.985,0,1,0,0-1.97h-1.84V17.731a.986.986,0,0,0-1.971,0Zm2.579-8.994v-.2a6.569,6.569,0,0,0-13.138,0v.2H4.2v-.2a8.54,8.54,0,1,1,17.08,0v.2Z"/>
    </g>
    <g id="apple-pay" transform="translate(11724.296 9520.762)">
      <g id="Group_12010" data-name="Group 12010" transform="translate(0 147.404)">
        <g id="Group_12008" data-name="Group 12008" transform="translate(0 0)">
          <path id="Path_1657" data-name="Path 1657" d="M74.1,151.235A5.375,5.375,0,0,0,75.34,147.4a5.329,5.329,0,0,0-3.533,1.828,5.031,5.031,0,0,0-1.267,3.682,4.447,4.447,0,0,0,3.563-1.68" transform="translate(-60.868 -147.404)"/>
          <path id="Path_1658" data-name="Path 1658" d="M14.457,189.576c-1.968-.117-3.641,1.117-4.58,1.117s-2.379-1.058-3.935-1.029a5.8,5.8,0,0,0-4.933,3c-2.114,3.644-.558,9.049,1.5,12.017,1,1.468,2.2,3.085,3.787,3.027,1.5-.059,2.085-.97,3.906-.97s2.349.97,3.934.941c1.645-.029,2.673-1.469,3.671-2.939a13.037,13.037,0,0,0,1.644-3.379,5.336,5.336,0,0,1-3.2-4.848,5.439,5.439,0,0,1,2.584-4.554,5.625,5.625,0,0,0-4.375-2.379" transform="translate(0 -183.801)"/>
        </g>
        <g id="Group_12009" data-name="Group 12009" transform="translate(23.326 1.68)">
          <path id="Path_1659" data-name="Path 1659" d="M178.8,159.688a6.915,6.915,0,0,1,7.254,7.24,6.992,6.992,0,0,1-7.362,7.27h-4.735v7.53h-3.421v-22.04Zm-4.842,11.639h3.925c2.979,0,4.674-1.6,4.674-4.384s-1.7-4.368-4.658-4.368h-3.941Z" transform="translate(-170.536 -159.688)"/>
          <path id="Path_1660" data-name="Path 1660" d="M290.52,213.021c0-2.811,2.154-4.536,5.972-4.75l4.4-.26v-1.237c0-1.787-1.207-2.856-3.222-2.856-1.91,0-3.1.916-3.391,2.352h-3.116c.183-2.9,2.657-5.041,6.629-5.041,3.895,0,6.384,2.062,6.384,5.285v11.074h-3.162v-2.642h-.076a5.741,5.741,0,0,1-5.071,2.917C292.72,217.862,290.52,215.907,290.52,213.021Zm10.371-1.451V210.3l-3.956.244c-1.97.138-3.085,1.008-3.085,2.383,0,1.405,1.161,2.322,2.933,2.322A3.852,3.852,0,0,0,300.891,211.57Z" transform="translate(-274.108 -195.547)"/>
          <path id="Path_1661" data-name="Path 1661" d="M402.147,225.329v-2.673a6.1,6.1,0,0,0,1.069.061c1.527,0,2.352-.641,2.856-2.291,0-.031.29-.978.29-.993l-5.8-16.083h3.574l4.063,13.075h.061l4.063-13.075H415.8l-6.018,16.908c-1.374,3.9-2.963,5.148-6.292,5.148A12.753,12.753,0,0,1,402.147,225.329Z" transform="translate(-369.095 -197.378)"/>
        </g>
      </g>
    </g>
    <g id="G_Pay_Lockup_1_" transform="translate(11824.794 9512.608)">
      <g id="Pay_Typeface_3_" transform="translate(32.56 157.136)">
        <path id="Letter_p_3_" d="M222.95,179.1v8.759h-2.78V166.229h7.369A6.646,6.646,0,0,1,232.3,168.1a6.237,6.237,0,0,1,0,9.15,6.635,6.635,0,0,1-4.763,1.839H222.95Zm0-10.207v7.543H227.6a3.71,3.71,0,0,0,2.751-1.115,3.645,3.645,0,0,0,1.115-2.649,3.857,3.857,0,0,0-3.865-3.764H222.95Z" transform="translate(-220.17 -166.229)"/>
        <path id="Letter_a_3_" d="M327.656,209.108a6.877,6.877,0,0,1,4.864,1.65,5.856,5.856,0,0,1,1.781,4.517V224.4h-2.649V222.34h-.116a5.287,5.287,0,0,1-4.589,2.534,5.958,5.958,0,0,1-4.1-1.448,4.623,4.623,0,0,1-1.65-3.619,4.371,4.371,0,0,1,1.737-3.648,7.289,7.289,0,0,1,4.633-1.361,8.1,8.1,0,0,1,4.068.912v-.637a3.154,3.154,0,0,0-1.144-2.461A3.924,3.924,0,0,0,327.8,211.6a4.223,4.223,0,0,0-3.677,1.969l-2.447-1.535A6.789,6.789,0,0,1,327.656,209.108Zm-3.59,10.742a2.192,2.192,0,0,0,.927,1.81,3.4,3.4,0,0,0,2.157.724,4.408,4.408,0,0,0,3.127-1.3,4.089,4.089,0,0,0,1.375-3.055A5.726,5.726,0,0,0,328.032,217a4.751,4.751,0,0,0-2.823.811A2.472,2.472,0,0,0,324.066,219.85Z" transform="translate(-306.258 -202.767)"/>
        <path id="Letter_y_3_" d="M426.745,212.338l-9.266,21.311h-2.867l3.446-7.456-6.109-13.855h3.026l4.4,10.626h.058l4.285-10.626h3.026Z" transform="translate(-383.588 -205.519)"/>
      </g>
      <path id="Path_1662" data-name="Path 1662" d="M95.5,223.684H83.849v4.778h6.71a5.748,5.748,0,0,1-2.49,3.848h0l-.121,2.855,4.115.243h0a12.142,12.142,0,0,0,3.669-9.119A14.648,14.648,0,0,0,95.5,223.684Z" transform="translate(-71.449 -58.051)"/>
      <path id="Path_1663" data-name="Path 1663" d="M24.225,256.246h0a7.515,7.515,0,0,1-11.181-3.932h0l-3.435-.544-.684,3.74a12.4,12.4,0,0,0,11.083,6.829,11.83,11.83,0,0,0,8.211-3h0Z" transform="translate(-7.603 -81.986)"/>
      <path id="Path_1664" data-name="Path 1664" d="M5.051,207.314a7.477,7.477,0,0,1,.388-2.373l-1.073-3.2H1.319a12.419,12.419,0,0,0,0,11.139h0l4.12-3.2h0A7.475,7.475,0,0,1,5.051,207.314Z" transform="translate(0 -39.357)"/>
      <path id="Path_1665" data-name="Path 1665" d="M20,155.558a12.405,12.405,0,0,0-11.084,6.83l4.12,3.2A7.419,7.419,0,0,1,20,160.466a6.74,6.74,0,0,1,4.759,1.86l3.54-3.537A11.914,11.914,0,0,0,20,155.558Z" transform="translate(-7.599)"/>
    </g>
  </g>
</svg>
